<svg width="163" height="81" viewBox="0 0 163 81" fill="none" xmlns="http://www.w3.org/2000/svg">
  <path d="M91.965 51.6829H99.2384C99.3091 51.6879 99.3802 51.6785 99.4471 51.6553C99.5141 51.6321 99.5757 51.5955 99.628 51.5477C99.6804 51.5 99.7225 51.4422 99.7517 51.3777C99.7809 51.3132 99.7967 51.2435 99.7981 51.1728V31.1241C99.7981 25.439 102.597 22.4433 107.428 22.4433C112.26 22.4433 115.007 25.439 115.007 31.1241V51.1753C115.008 51.2461 115.024 51.3158 115.053 51.3803C115.083 51.4447 115.125 51.5026 115.177 51.5503C115.229 51.598 115.291 51.6346 115.358 51.6578C115.425 51.6811 115.496 51.6904 115.567 51.6854H122.84C122.911 51.6904 122.982 51.6811 123.049 51.6578C123.116 51.6346 123.177 51.598 123.23 51.5503C123.282 51.5026 123.324 51.4447 123.353 51.3803C123.383 51.3158 123.398 51.2461 123.4 51.1753V31.1752C123.4 22.5951 118.619 15.0825 107.427 15.0825C96.2342 15.0825 91.4053 22.5951 91.4053 31.1752V51.1753C91.407 51.2458 91.423 51.3153 91.4524 51.3795C91.4818 51.4436 91.524 51.5012 91.5763 51.5486C91.6286 51.5961 91.69 51.6324 91.7568 51.6555C91.8236 51.6786 91.8944 51.6879 91.965 51.6829Z" fill="#00A868" />
  <path d="M41.913 52.1406C44.5581 52.1406 46.2871 51.8358 47.0499 51.531C47.1637 51.4857 47.2623 51.4092 47.3344 51.3104C47.4065 51.2116 47.4492 51.0944 47.4576 50.9725V44.9787C47.4576 44.6229 47.3042 44.4201 46.8468 44.4201C46.4902 44.4201 45.4731 44.6229 44.6591 44.6229C41.5054 44.6229 40.133 43.456 40.133 40.7141V23.8142H46.8468C46.9948 23.8129 47.1364 23.7536 47.241 23.6491C47.3457 23.5447 47.4051 23.4034 47.4064 23.2556V16.7071C47.4051 16.5594 47.3457 16.4181 47.241 16.3136C47.1364 16.2091 46.9948 16.1498 46.8468 16.1485H39.8787V10.4633C39.8787 9.85375 39.6231 9.59998 39.1657 9.59998H32.2985C31.7401 9.59998 31.4858 9.85503 31.4858 10.4633V41.5801C31.4858 49.145 35.7065 52.1406 41.913 52.1406Z" fill="#00A868" />
  <path d="M12.7183 52.5461C20.908 52.5461 26.758 47.5203 26.758 40.9717C26.758 33.6108 21.8741 31.4798 15.2114 30.0579L11.9044 29.3476C9.41257 28.789 8.03889 27.6209 8.03889 25.6416C8.03889 23.1038 10.5818 21.7329 14.092 21.7329C19.0258 21.7329 22.3826 23.9659 22.8912 23.9659C23.0326 23.9565 23.1687 23.9092 23.2853 23.8288C23.4018 23.7484 23.4944 23.638 23.5531 23.5094L24.8757 18.5855C25.1313 17.9249 25.0789 17.7732 24.6201 17.5194C21.6696 15.9967 18.5159 15.1334 14.0396 15.1334C5.749 15.1334 0 19.9054 0 26.2512C0 32.245 4.62961 35.5403 11.245 36.9635L14.6019 37.6739C17.2981 38.2324 18.8187 39.2986 18.8187 41.5826C18.8187 43.9176 16.9876 45.9478 12.6634 45.9478C6.55915 45.9478 2.38828 43.5121 1.72764 43.5121C1.32001 43.5121 1.16795 43.7148 1.01588 44.3742L0.150784 48.4869C-0.104784 49.349 0.150785 49.9076 0.710479 50.1614C2.79719 51.3282 8.4938 52.5461 12.7183 52.5461Z" fill="#00A868" />
  <path d="M68.2114 45.4901C62.87 45.4901 57.9886 41.4794 57.9886 33.9157C57.9886 26.3521 62.8713 22.4383 68.2114 22.4383C73.6026 22.4383 78.3842 26.347 78.3842 33.9157C78.3842 41.5304 73.6026 45.4901 68.2114 45.4901ZM68.2114 52.8C78.8928 52.8 86.6749 44.8308 86.6749 33.9157C86.6749 23.0006 78.8928 15.0825 68.2114 15.0825C57.5797 15.0825 49.7466 23.0019 49.7466 33.9157C49.7466 44.8295 57.5797 52.8 68.2114 52.8Z" fill="#00A868" />
  <path d="M163 33.5102C163 22.2878 156.539 15.0825 146.26 15.0825C136.596 15.0825 128.254 22.4944 128.254 33.764C128.254 45.7949 136.799 52.8 145.955 52.8C153.636 52.8 158.067 49.7789 160.808 46.0997C161.339 45.3868 161.447 45.0795 161.447 44.8805C161.447 44.6816 161.32 44.526 160.858 44.1154L157.653 41.3238C156.887 40.6645 156.631 40.4604 156.376 40.4604C156.12 40.4604 155.968 40.6135 155.765 40.8673C153.577 43.8119 150.526 45.4863 146.406 45.4863C141.209 45.4863 137.746 41.9627 136.867 36.2469H160.339C161.976 36.2508 163 35.7368 163 33.5102ZM145.959 22.1386C151.51 22.1386 154.447 25.8764 154.607 30.007H136.991C137.956 25.5716 140.972 22.1386 145.959 22.1386Z" fill="#00A868" />
  <path d="M101.065 72.834C100.937 74.1992 100.433 75.2656 99.5537 76.0332C98.6748 76.7949 97.5059 77.1758 96.0469 77.1758C95.0273 77.1758 94.1279 76.9355 93.3486 76.4551C92.5752 75.9688 91.9775 75.2803 91.5557 74.3896C91.1338 73.499 90.9141 72.4648 90.8965 71.2871V70.0918C90.8965 68.8848 91.1104 67.8213 91.5381 66.9014C91.9658 65.9814 92.5781 65.2725 93.375 64.7744C94.1777 64.2764 95.1035 64.0273 96.1523 64.0273C97.5645 64.0273 98.7012 64.4111 99.5625 65.1787C100.424 65.9463 100.925 67.0303 101.065 68.4307H98.8506C98.7451 67.5107 98.4756 66.8486 98.042 66.4443C97.6143 66.0342 96.9844 65.8291 96.1523 65.8291C95.1855 65.8291 94.4414 66.1836 93.9199 66.8926C93.4043 67.5957 93.1406 68.6299 93.1289 69.9951V71.1289C93.1289 72.5117 93.375 73.5664 93.8672 74.293C94.3652 75.0195 95.0918 75.3828 96.0469 75.3828C96.9199 75.3828 97.5762 75.1865 98.0156 74.7939C98.4551 74.4014 98.7334 73.748 98.8506 72.834H101.065ZM108.615 76.0684C107.988 76.8066 107.098 77.1758 105.943 77.1758C104.912 77.1758 104.13 76.874 103.597 76.2705C103.069 75.667 102.806 74.7939 102.806 73.6514V67.4902H104.941V73.625C104.941 74.832 105.442 75.4355 106.444 75.4355C107.481 75.4355 108.182 75.0635 108.545 74.3193V67.4902H110.681V77H108.668L108.615 76.0684ZM117.835 69.4414C117.554 69.3945 117.264 69.3711 116.965 69.3711C115.986 69.3711 115.327 69.7461 114.987 70.4961V77H112.852V67.4902H114.891L114.943 68.5537C115.459 67.7275 116.174 67.3145 117.088 67.3145C117.393 67.3145 117.645 67.3555 117.844 67.4375L117.835 69.4414ZM124.163 69.4414C123.882 69.3945 123.592 69.3711 123.293 69.3711C122.314 69.3711 121.655 69.7461 121.315 70.4961V77H119.18V67.4902H121.219L121.271 68.5537C121.787 67.7275 122.502 67.3145 123.416 67.3145C123.721 67.3145 123.973 67.3555 124.172 67.4375L124.163 69.4414ZM129.524 77.1758C128.171 77.1758 127.072 76.751 126.229 75.9014C125.391 75.0459 124.972 73.9092 124.972 72.4912V72.2275C124.972 71.2783 125.153 70.4316 125.517 69.6875C125.886 68.9375 126.401 68.3545 127.063 67.9385C127.726 67.5225 128.464 67.3145 129.278 67.3145C130.573 67.3145 131.572 67.7275 132.275 68.5537C132.984 69.3799 133.339 70.5488 133.339 72.0605V72.9219H127.125C127.189 73.707 127.45 74.3281 127.907 74.7852C128.37 75.2422 128.95 75.4707 129.647 75.4707C130.626 75.4707 131.423 75.0752 132.038 74.2842L133.189 75.3828C132.809 75.9512 132.299 76.3936 131.66 76.71C131.027 77.0205 130.315 77.1758 129.524 77.1758ZM129.27 69.0283C128.684 69.0283 128.209 69.2334 127.846 69.6436C127.488 70.0537 127.26 70.625 127.16 71.3574H131.229V71.1992C131.183 70.4844 130.992 69.9453 130.658 69.582C130.324 69.2129 129.861 69.0283 129.27 69.0283ZM136.986 67.4902L137.048 68.5889C137.751 67.7393 138.674 67.3145 139.816 67.3145C141.797 67.3145 142.805 68.4482 142.84 70.7158V77H140.704V70.8389C140.704 70.2354 140.572 69.79 140.309 69.5029C140.051 69.21 139.626 69.0635 139.034 69.0635C138.173 69.0635 137.531 69.4531 137.109 70.2324V77H134.974V67.4902H136.986ZM148.931 75.4707C149.464 75.4707 149.906 75.3154 150.258 75.0049C150.609 74.6943 150.797 74.3105 150.82 73.8535H152.833C152.81 74.4453 152.625 74.999 152.279 75.5146C151.934 76.0244 151.465 76.4287 150.873 76.7275C150.281 77.0264 149.643 77.1758 148.957 77.1758C147.627 77.1758 146.572 76.7451 145.793 75.8838C145.014 75.0225 144.624 73.833 144.624 72.3154V72.0957C144.624 70.6484 145.011 69.4912 145.784 68.624C146.558 67.751 147.612 67.3145 148.948 67.3145C150.079 67.3145 150.999 67.6455 151.708 68.3076C152.423 68.9639 152.798 69.8281 152.833 70.9004H150.82C150.797 70.3555 150.609 69.9072 150.258 69.5557C149.912 69.2041 149.47 69.0283 148.931 69.0283C148.239 69.0283 147.706 69.2803 147.331 69.7842C146.956 70.2822 146.766 71.041 146.76 72.0605V72.4033C146.76 73.4346 146.944 74.2051 147.313 74.7148C147.688 75.2188 148.228 75.4707 148.931 75.4707ZM157.772 73.9414L159.706 67.4902H161.982L158.203 78.4414C157.623 80.041 156.639 80.8408 155.25 80.8408C154.939 80.8408 154.597 80.7881 154.222 80.6826V79.0303L154.626 79.0566C155.165 79.0566 155.569 78.957 155.839 78.7578C156.114 78.5645 156.331 78.2363 156.489 77.7734L156.797 76.9561L153.457 67.4902H155.76L157.772 73.9414Z" fill="#00AB63" />
  <rect opacity="0.32" y="65" width="83" height="4" fill="#00AB63" />
</svg>
