<svg width="24" height="24" viewBox="0 0 24 24" fill="none" xmlns="http://www.w3.org/2000/svg">
  <path d="M17.3271 10.0945C17.0332 10.3884 17.0332 10.8649 17.3271 11.1589C17.621 11.4528 18.0976 11.4528 18.3915 11.1589L21.5785 7.97187C21.8724 7.67794 21.8724 7.20138 21.5785 6.90746L18.3915 3.72045C18.0976 3.42652 17.621 3.42652 17.3271 3.72045C17.0332 4.01438 17.0332 4.49093 17.3271 4.78486L19.2267 6.68444L2.75265 6.68444C2.33697 6.68444 2 7.02141 2 7.43709C2 7.85277 2.33697 8.18974 2.75265 8.18974L19.2318 8.18974L17.3271 10.0945Z" fill="white" />
  <path d="M6.67279 13.8422C6.96672 13.5483 6.96672 13.0717 6.67279 12.7778C6.37886 12.4839 5.90231 12.4839 5.60838 12.7778L2.42137 15.9648C2.12745 16.2588 2.12745 16.7353 2.42137 17.0292L5.60838 20.2162C5.90231 20.5102 6.37887 20.5102 6.67279 20.2162C6.96672 19.9223 6.96672 19.4458 6.67279 19.1518L4.77321 17.2523L21.2472 17.2523C21.6629 17.2523 21.9999 16.9153 21.9999 16.4996C21.9999 16.0839 21.6629 15.747 21.2472 15.747L4.76807 15.747L6.67279 13.8422Z" fill="white" />
</svg>
